<svg xmlns="http://www.w3.org/2000/svg" xmlns:xlink="http://www.w3.org/1999/xlink" width="48" height="48" viewBox="0 0 48 48"><defs><style>.a{fill:#2979ff;}.b{fill:url(#a);}.c{fill:url(#b);}.d{fill:#fff;}</style><linearGradient id="a" x1="19.98" y1="23.94" x2="27.76" y2="10.47" gradientUnits="userSpaceOnUse"><stop offset="0.14" stop-color="#fff" stop-opacity="0"/><stop offset="0.91" stop-color="#fff"/></linearGradient><radialGradient id="b" cx="77.24" cy="81.69" r="14.65" gradientTransform="translate(-44.69 -52.47) scale(0.9)" gradientUnits="userSpaceOnUse"><stop offset="0" stop-color="#fff" stop-opacity="0.2"/><stop offset="0.05" stop-color="#fff" stop-opacity="0.25"/><stop offset="0.31" stop-color="#fff" stop-opacity="0.52"/><stop offset="0.54" stop-color="#fff" stop-opacity="0.72"/><stop offset="0.74" stop-color="#fff" stop-opacity="0.87"/><stop offset="0.9" stop-color="#fff" stop-opacity="0.97"/><stop offset="1" stop-color="#fff"/></radialGradient></defs><circle class="a" cx="24" cy="24" r="24"/><path class="b" d="M33.1,17l2.33,0a10.15,10.15,0,0,0-1.88-3.21c-1,.06-2.08.16-3.14.29a14.24,14.24,0,0,0-2.66-3.21c-3.54,1-12.42,4.75-16.36,8.08l.56.22A52.58,52.58,0,0,1,27.3,12.84a9.47,9.47,0,0,1,1,1.59A64.53,64.53,0,0,0,14,18.68l.46.3a61.62,61.62,0,0,1,18.14-3.22A6.55,6.55,0,0,1,33.1,17Z"/><path class="c" d="M40.69,23.31A11.31,11.31,0,0,0,40,20.57,4.32,4.32,0,0,0,39,19a3.45,3.45,0,0,0-1.75-.92c-.62-.14-1.92-.14-11.51-.14a6.31,6.31,0,0,1,.94,1.39l.26.51c7.39,0,9.5,0,9.91.1a1.55,1.55,0,0,1,.8.4,2.75,2.75,0,0,1,.52,1,9.59,9.59,0,0,1,.59,2.29,13.59,13.59,0,0,1,0,3.25,9.51,9.51,0,0,1-.6,2.29,2.75,2.75,0,0,1-.51,1,1.8,1.8,0,0,1-.73.41,13,13,0,0,1-2.39.08H28.05a12.33,12.33,0,0,1-2.39-.08,1.82,1.82,0,0,1-.73-.42,2.87,2.87,0,0,1-.44-.65l-.39-.78a8.39,8.39,0,0,1-.87-2.37,5.14,5.14,0,0,1-.08-1.45l-.07-.36a6.79,6.79,0,0,0-.7-1.91L22,21.79a8,8,0,0,0-.64,4.8,10.21,10.21,0,0,0,1.05,2.9l.39.77a4.42,4.42,0,0,0,.78,1.13,3.56,3.56,0,0,0,1.58.9,11.57,11.57,0,0,0,2.89.15h6.52a11.57,11.57,0,0,0,2.89-.15,3.56,3.56,0,0,0,1.58-.9,4.4,4.4,0,0,0,.94-1.6A12.06,12.06,0,0,0,40.69,27,15.52,15.52,0,0,0,40.69,23.31Z"/><path class="d" d="M21.28,31l-.26-.5c-7.39,0-9.51,0-9.92-.1a1.56,1.56,0,0,1-.79-.4,2.58,2.58,0,0,1-.51-.95,9.61,9.61,0,0,1-.6-2.3,13.51,13.51,0,0,1,0-3.24,9.16,9.16,0,0,1,.6-2.3,2.46,2.46,0,0,1,.51-.94,1.71,1.71,0,0,1,.73-.42,12.4,12.4,0,0,1,2.39-.08H20a13,13,0,0,1,2.39.08,1.69,1.69,0,0,1,.73.41,2.65,2.65,0,0,1,.43.66l.4.77a8.48,8.48,0,0,1,.87,2.38,5.11,5.11,0,0,1,.08,1.45l.07.36a6.54,6.54,0,0,0,.7,1.91l.38.73a7.93,7.93,0,0,0,.64-4.8,10.09,10.09,0,0,0-1.05-2.9l-.4-.78A4.4,4.4,0,0,0,24.42,19a3.58,3.58,0,0,0-1.58-.91A11.57,11.57,0,0,0,20,17.9H13.43a10.86,10.86,0,0,0-2.89.16A3.61,3.61,0,0,0,9,19,4.49,4.49,0,0,0,8,20.56a11.45,11.45,0,0,0-.71,2.74,15.6,15.6,0,0,0,0,3.74A12,12,0,0,0,8,29.78,4.46,4.46,0,0,0,9,31.38a3.45,3.45,0,0,0,1.75.92c.62.13,1.92.14,11.51.14A6.32,6.32,0,0,1,21.28,31Z"/></svg>